<svg width="86" height="34" viewBox="0 0 86 34" fill="none" xmlns="http://www.w3.org/2000/svg">
<path d="M41.0604 7.82051L15.6723 25.6983L41.6332 25.7799L38.5311 31.6575C38.0948 32.365 37.7411 32.8004 37.4699 32.9637C37.1987 33.127 36.6544 33.2086 35.8372 33.2086H0.161907V25.7799L26.0398 7.82051H0L3.10208 1.94288C3.48213 1.23539 3.82227 0.800017 4.1225 0.636749C4.42273 0.473482 4.95335 0.391846 5.71436 0.391846H41.0617L41.0604 7.82051Z" fill="#FD2DFF"/>
<path d="M58.6919 20.3063C58.4173 20.3022 58.1446 20.3522 57.8893 20.4535C57.634 20.5547 57.4011 20.7053 57.204 20.8966C57.0069 21.0879 56.8494 21.3161 56.7406 21.5683C56.6317 21.8204 56.5736 22.0916 56.5695 22.3662V33.2044H46.5312V0.387695H85.7154L82.695 6.18777C82.2582 6.89526 81.9058 7.33064 81.6337 7.49391C81.3616 7.65718 80.8174 7.73881 80.0011 7.73881H58.6919C58.4173 7.73467 58.1446 7.78467 57.8893 7.88595C57.634 7.98723 57.4011 8.13782 57.204 8.3291C57.0069 8.52039 56.8494 8.74863 56.7406 9.00078C56.6317 9.25294 56.5736 9.52407 56.5695 9.7987V13.2899H79.9167L77.0595 18.7594C76.6228 19.4668 76.2704 19.9022 75.9983 20.0655C75.7262 20.2288 75.182 20.3104 74.3656 20.3104L58.6919 20.3063ZM85.9576 25.7799L82.9372 31.6575C82.5 32.365 82.1326 32.8004 81.8351 32.9636C81.5376 33.1269 81.007 33.2085 80.2432 33.2085H58.6103L61.6308 27.3309C62.0104 26.6234 62.3519 26.188 62.6512 26.0248C62.9505 25.8615 63.4798 25.7799 64.243 25.7799H85.9576Z" fill="#FD2DFF"/>
</svg>
