<svg width="8" height="5" viewBox="0 0 8 5" fill="none" xmlns="http://www.w3.org/2000/svg">
<path d="M7.70711 1.70711C8.09763 1.31658 8.09763 0.683417 7.70711 0.292893C7.31658 -0.0976311 6.68342 -0.0976311 6.29289 0.292893L7.70711 1.70711ZM4 4L3.29289 4.70711C3.48043 4.89464 3.73478 5 4 5C4.26522 5 4.51957 4.89464 4.70711 4.70711L4 4ZM1.70711 0.292893C1.31658 -0.0976311 0.683417 -0.0976311 0.292893 0.292893C-0.0976311 0.683418 -0.0976311 1.31658 0.292893 1.70711L1.70711 0.292893ZM6.29289 0.292893L3.29289 3.29289L4.70711 4.70711L7.70711 1.70711L6.29289 0.292893ZM4.70711 3.29289L1.70711 0.292893L0.292893 1.70711L3.29289 4.70711L4.70711 3.29289Z" fill="white"/>
</svg>
