<?xml version="1.0" encoding="utf-8"?>
<!-- Generator: Adobe Illustrator 26.0.2, SVG Export Plug-In . SVG Version: 6.00 Build 0)  -->
<svg version="1.1" id="Ebene_1" xmlns="http://www.w3.org/2000/svg" xmlns:xlink="http://www.w3.org/1999/xlink" x="0px" y="0px"
	 viewBox="0 0 1024 1024" style="enable-background:new 0 0 1024 1024;" xml:space="preserve">
<style type="text/css">
	.st0{fill:#FA2EFF;}
	.st1{fill:url(#SVGID_1_);}
	.st2{fill:url(#SVGID_00000179632183549403342510000018407864310171630981_);}
</style>
<path id="_x32_68355016_x5F_shock_x5F_x5F_x5F_color_x5F_grid" class="st0" d="M-13.3,249.5c0.2,2.2,0.3,4.3,0.3,6.5
	c0,39.7-26.4,71.9-58.8,71.9h-6.5v-78.5H-13.3z M-235,249.5c-0.2,2.2-0.3,4.3-0.3,6.5c0,39.7,26.4,71.9,58.8,71.9h6.5v-78.5H-235z"
	/>
<linearGradient id="SVGID_1_" gradientUnits="userSpaceOnUse" x1="2543.4338" y1="-18.4303" x2="3624.2571" y2="-18.4303">
	<stop  offset="4.315509e-07" style="stop-color:#0037BF"/>
	<stop  offset="1" style="stop-color:#D800A6"/>
</linearGradient>
<rect x="2543.4" y="-286.4" class="st1" width="1080.8" height="535.9"/>
<rect x="-640.9" y="-1995.7" width="2732.5" height="1489.2"/>
<linearGradient id="SVGID_00000041985058734651895520000002826538765662701990_" gradientUnits="userSpaceOnUse" x1="43.5981" y1="512" x2="980.4019" y2="512">
	<stop  offset="4.315509e-07" style="stop-color:#0037BF"/>
	<stop  offset="1" style="stop-color:#D800A6"/>
</linearGradient>
<path style="fill:url(#SVGID_00000041985058734651895520000002826538765662701990_);" d="M954.5,235.2L790.3,70.9
	c-38.4-38.4-98.1-38.4-136.5,0L423.3,301.3c-17.1,17.1-17.1,42.7,0,59.7s42.7,17.1,59.7,0l232.5-230.4c4.3-2.1,10.7-2.1,14.9,0
	l164.3,164.3c2.1,2.1,2.1,6.4,2.1,8.5s0,4.3-2.1,8.5L662.3,542.4c-17.1,17.1-17.1,42.7,0,59.7c8.5,8.5,19.2,12.8,29.9,12.8
	c10.7,0,21.3-4.3,29.9-12.8l230.4-230.4c19.2-19.2,27.7-42.7,27.7-68.3C982.3,277.9,971.6,252.3,954.5,235.2 M43.6,721.6
	c0,25.6,10.7,51.2,27.7,68.3l164.3,164.3c19.2,19.2,42.7,27.7,68.3,27.7s49.1-8.5,68.3-27.7l230.4-230.4c17.1-17.1,17.1-42.7,0-59.7
	s-42.7-17.1-59.7,0L310.3,894.4c-4.3,4.3-10.7,4.3-14.9,0L131.1,730.1c-2.1-2.1-2.1-6.4-2.1-8.5c0-2.1,0-4.3,2.1-8.5l232.5-230.4
	c17.1-17.1,17.1-42.7,0-59.7s-42.7-17.1-59.7,0L71.3,653.3C54.3,672.5,43.6,696,43.6,721.6 M768.9,725.9h85.3
	c23.5,0,42.7-19.2,42.7-42.7s-19.2-42.7-42.7-42.7h-85.3c-23.5,0-42.7,19.2-42.7,42.7S745.5,725.9,768.9,725.9 M726.3,853.9v-85.3
	c0-23.5-19.2-42.7-42.7-42.7s-42.7,19.2-42.7,42.7v85.3c0,23.5,19.2,42.7,42.7,42.7S726.3,877.3,726.3,853.9 M171.6,299.2
	c-23.5,0-42.7,19.2-42.7,42.7s19.2,42.7,42.7,42.7h85.3c23.5,0,42.7-19.2,42.7-42.7s-19.2-42.7-42.7-42.7H171.6z M299.6,171.2v85.3
	c0,23.5,19.2,42.7,42.7,42.7s42.7-19.2,42.7-42.7v-85.3c0-23.5-19.2-42.7-42.7-42.7S299.6,147.7,299.6,171.2"/>
</svg>
