<svg width="18" height="18" viewBox="0 0 18 18" fill="none" xmlns="http://www.w3.org/2000/svg">
<path d="M8.99999 17.3333C4.39749 17.3333 0.666656 13.6025 0.666656 8.99996C0.666656 4.39746 4.39749 0.666626 8.99999 0.666626C13.6025 0.666626 17.3333 4.39746 17.3333 8.99996C17.3333 13.6025 13.6025 17.3333 8.99999 17.3333ZM7.09166 15.3891C6.2695 13.6452 5.79322 11.7585 5.68916 9.83329H2.38499C2.54714 11.1157 3.07826 12.3234 3.9138 13.3097C4.74934 14.296 5.85333 15.0184 7.09166 15.3891ZM7.35832 9.83329C7.48416 11.8658 8.06499 13.775 8.99999 15.46C9.96026 13.7304 10.5212 11.8079 10.6417 9.83329H7.35832ZM15.615 9.83329H12.3108C12.2068 11.7585 11.7305 13.6452 10.9083 15.3891C12.1466 15.0184 13.2506 14.296 14.0862 13.3097C14.9217 12.3234 15.4528 11.1157 15.615 9.83329ZM2.38499 8.16663H5.68916C5.79322 6.24145 6.2695 4.3547 7.09166 2.61079C5.85333 2.98153 4.74934 3.70392 3.9138 4.69021C3.07826 5.67649 2.54714 6.88421 2.38499 8.16663ZM7.35916 8.16663H10.6408C10.5206 6.19212 9.95996 4.26957 8.99999 2.53996C8.03972 4.2695 7.47879 6.19206 7.35832 8.16663H7.35916ZM10.9083 2.61079C11.7305 4.3547 12.2068 6.24145 12.3108 8.16663H15.615C15.4528 6.88421 14.9217 5.67649 14.0862 4.69021C13.2506 3.70392 12.1466 2.98153 10.9083 2.61079Z" fill="white"/>
</svg>
