<svg width="13" height="16" viewBox="0 0 13 16" fill="none" xmlns="http://www.w3.org/2000/svg">
<path d="M10.75 5.66671H12.1667C12.3545 5.66671 12.5347 5.74133 12.6675 5.87417C12.8004 6.00701 12.875 6.18718 12.875 6.37504V14.875C12.875 15.0629 12.8004 15.2431 12.6675 15.3759C12.5347 15.5087 12.3545 15.5834 12.1667 15.5834H0.833333C0.645472 15.5834 0.465304 15.5087 0.332466 15.3759C0.199628 15.2431 0.125 15.0629 0.125 14.875V6.37504C0.125 6.18718 0.199628 6.00701 0.332466 5.87417C0.465304 5.74133 0.645472 5.66671 0.833333 5.66671H2.25V4.95837C2.25 3.8312 2.69777 2.7502 3.4948 1.95317C4.29183 1.15614 5.37283 0.708374 6.5 0.708374C7.62717 0.708374 8.70817 1.15614 9.5052 1.95317C10.3022 2.7502 10.75 3.8312 10.75 4.95837V5.66671ZM9.33333 5.66671V4.95837C9.33333 4.20693 9.03482 3.48626 8.50347 2.9549C7.97212 2.42355 7.25145 2.12504 6.5 2.12504C5.74855 2.12504 5.02788 2.42355 4.49653 2.9549C3.96518 3.48626 3.66667 4.20693 3.66667 4.95837V5.66671H9.33333ZM2.95833 7.79171V9.20837H4.375V7.79171H2.95833ZM2.95833 9.91671V11.3334H4.375V9.91671H2.95833ZM2.95833 12.0417V13.4584H4.375V12.0417H2.95833Z" fill="white"/>
</svg>
