<svg width="28" height="28" viewBox="0 0 28 28" fill="none" xmlns="http://www.w3.org/2000/svg">
<g clip-path="url(#clip0_163_4235)">
<path d="M25.5006 23.1505H3.16699V20.9171H4.28367V13.135C4.28367 7.56502 8.78389 3.05029 14.3338 3.05029C19.8837 3.05029 24.3839 7.56502 24.3839 13.135V20.9171H25.5006V23.1505ZM6.51703 20.9171H22.1505V13.135C22.1505 8.79895 18.6509 5.28365 14.3338 5.28365C10.0167 5.28365 6.51703 8.79895 6.51703 13.135V20.9171ZM11.5421 24.2672H17.1255C17.1255 25.0076 16.8313 25.7177 16.3078 26.2412C15.7843 26.7648 15.0742 27.0589 14.3338 27.0589C13.5934 27.0589 12.8833 26.7648 12.3597 26.2412C11.8362 25.7177 11.5421 25.0076 11.5421 24.2672V24.2672Z" fill="white"/>
<circle cx="22.1505" cy="7.51699" r="5.58339" fill="#0DFBBF"/>
</g>
<defs>
<clipPath id="clip0_163_4235">
<rect width="26.8003" height="26.8003" fill="white" transform="translate(0.933594 0.816895)"/>
</clipPath>
</defs>
</svg>
