<svg width="21" height="21" viewBox="0 0 21 21" fill="none" xmlns="http://www.w3.org/2000/svg">
<path d="M9.01758 0C13.9856 0 18.0176 4.032 18.0176 9C18.0176 13.968 13.9856 18 9.01758 18C4.04958 18 0.0175838 13.968 0.0175838 9C0.0175838 4.032 4.04958 0 9.01758 0ZM9.01758 16C12.8846 16 16.0176 12.867 16.0176 9C16.0176 5.132 12.8846 2 9.01758 2C5.14958 2 2.01758 5.132 2.01758 9C2.01758 12.867 5.14958 16 9.01758 16ZM17.5026 16.071L20.3316 18.899L18.9166 20.314L16.0886 17.485L17.5026 16.071Z" fill="white"/>
</svg>
