<svg width="24" height="24" viewBox="0 0 24 24" fill="none" xmlns="http://www.w3.org/2000/svg">
<g clip-path="url(#clip0_153_3596)">
<path d="M12 19.9998C14.1217 19.9998 16.1566 19.1569 17.6569 17.6566C19.1571 16.1563 20 14.1215 20 11.9998C20 9.87802 19.1571 7.84319 17.6569 6.3429C16.1566 4.84261 14.1217 3.99976 12 3.99976C9.87827 3.99976 7.84344 4.84261 6.34315 6.3429C4.84286 7.84319 4 9.87802 4 11.9998C4 14.1215 4.84286 16.1563 6.34315 17.6566C7.84344 19.1569 9.87827 19.9998 12 19.9998ZM12 21.9998C6.477 21.9998 2 17.5228 2 11.9998C2 6.47676 6.477 1.99976 12 1.99976C17.523 1.99976 22 6.47676 22 11.9998C22 17.5228 17.523 21.9998 12 21.9998ZM8.89 13.1698L6.392 12.3908C5.852 12.2258 5.849 11.8538 6.513 11.5868L16.246 7.82676C16.811 7.59676 17.131 7.88776 16.948 8.61676L15.291 16.4368C15.175 16.9938 14.84 17.1268 14.375 16.8698L11.824 14.9818L10.635 16.1298C10.513 16.2478 10.414 16.3488 10.226 16.3738C10.039 16.3998 9.885 16.3438 9.772 16.0338L8.902 13.1628L8.89 13.1708V13.1698Z" fill="white"/>
</g>
<defs>
<clipPath id="clip0_153_3596">
<rect width="24" height="24" fill="white"/>
</clipPath>
</defs>
</svg>
