<svg width="22" height="22" viewBox="0 0 22 22" fill="none" xmlns="http://www.w3.org/2000/svg">
<g clip-path="url(#clip0_163_4249)">
<path d="M16.4999 6.41667H19.2499C19.493 6.41667 19.7262 6.51324 19.8981 6.68515C20.07 6.85706 20.1666 7.09022 20.1666 7.33333V18.3333C20.1666 18.5764 20.07 18.8096 19.8981 18.9815C19.7262 19.1534 19.493 19.25 19.2499 19.25H2.74992C2.5068 19.25 2.27365 19.1534 2.10174 18.9815C1.92983 18.8096 1.83325 18.5764 1.83325 18.3333V3.66667C1.83325 3.42355 1.92983 3.19039 2.10174 3.01849C2.27365 2.84658 2.5068 2.75 2.74992 2.75H16.4999V6.41667ZM3.66659 8.25V17.4167H18.3333V8.25H3.66659ZM3.66659 4.58333V6.41667H14.6666V4.58333H3.66659ZM13.7499 11.9167H16.4999V13.75H13.7499V11.9167Z" fill="white"/>
</g>
<defs>
<clipPath id="clip0_163_4249">
<rect width="22" height="22" fill="white"/>
</clipPath>
</defs>
</svg>
